# xmcd
#
# Track frame offsets:
#	150
#	15307
#	31402
#	48085
#	70414
#	87296
#	104855
#	123349
#	141750
#	159608
#	179695
#	197695
#	211423
#	231284
#	249772
#	272127
#	289256
#	305576
#	318872
#	336613
#
# Disc length: 4697 seconds
#
# Revision: 1
# Processed by: cddbd v1.5.2PL0 Copyright (c) Steve Scherf et al.
# Submitted via: audiograbber 1.83.01
#
DISCID=2c125714
DTITLE=Taylor Swift - Greatest Hits
DYEAR=2015
DGENRE=Country Pop
TTITLE0=Bad Blood
TTITLE1=Welcome To New York
TTITLE2=Wildest Dreams
TTITLE3=State Of Grace
TTITLE4=Red
TTITLE5=22
TTITLE6=Eyes Open (The Hunger Games OST)
TTITLE7=Speak Now
TTITLE8=If This Was A Movie
TTITLE9=The Story Of Us
TTITLE10=Jump Then Fall (Valentine's Day OST)
TTITLE11=Beautiful Eyes
TTITLE12=You're Not Sorry
TTITLE13=Fearless
TTITLE14=Fifteen
TTITLE15=Forever and Always
TTITLE16=I'm Only Me When I'm With You
TTITLE17=Picture To Burn
TTITLE18=Tim McGraw
TTITLE19=Last Christmas
EXTD=
EXTT0=
EXTT1=
EXTT2=
EXTT3=
EXTT4=
EXTT5=
EXTT6=
EXTT7=
EXTT8=
EXTT9=
EXTT10=
EXTT11=
EXTT12=
EXTT13=
EXTT14=
EXTT15=
EXTT16=
EXTT17=
EXTT18=
EXTT19=
PLAYORDER=
